<svg xmlns="http://www.w3.org/2000/svg" viewBox="0 0 87.81 87.81"><defs><style>.cls-1{fill:#353442;}.cls-2{fill:#fff;fill-rule:evenodd;}.cls-3{fill:#42c5f1;}</style></defs><title>Asset 4off</title><g id="Layer_2" data-name="Layer 2"><g id="Layer_1-2" data-name="Layer 1"><path class="cls-1" d="M54.66,38.13c-.06,1.27.25,1.13.24,2.35,1.36,0,1.32,1.1,1.27,2.62-.06,1.89-1.53,5.1-3.58,5.73-.24,1.78,0,4.61-1.83,5.21a5.76,5.76,0,0,0-.18,2.4C54,60.9,59.87,63.8,63.81,65.71A29.36,29.36,0,1,0,24,65.82c5-3,12.26-7.5,13-9.52a5.83,5.83,0,0,0-.55-2.61c-1.37-.27-1.44-3.51-1.44-5-2.29-.32-3.24-4-3.27-6.17,0-1.27.41-2.21,1.7-2.2a24.65,24.65,0,0,0-.31-2.92Z"/><path class="cls-2" d="M63.81,65.71C59.87,63.8,54,60.9,50.59,56.44a5.76,5.76,0,0,1,.18-2.4c1.86-.59,1.59-3.43,1.83-5.21,2-.63,3.51-3.84,3.58-5.73.05-1.52.09-2.67-1.27-2.62,0-1.22-.3-1.08-.24-2.35,3.45-8.41-4.14-14.21-10.76-14.21a11.83,11.83,0,0,0-7.6,2.72c-5.41,2.57-4.42,9.12-3.15,10.75a24.65,24.65,0,0,1,.31,2.92c-1.29,0-1.72.92-1.7,2.2,0,2.16,1,5.85,3.27,6.17,0,1.5.08,4.75,1.44,5A5.83,5.83,0,0,1,37,56.3c-.77,2-8,6.53-13,9.52a29.35,29.35,0,0,0,39.81-.11Z"/><path class="cls-3" d="M43.9,87.81a43.91,43.91,0,1,1,43.91-43.9A44,44,0,0,1,43.9,87.81Zm0-82.37A38.47,38.47,0,1,0,82.37,43.91,38.51,38.51,0,0,0,43.9,5.44Z"/></g></g></svg>