<svg width="32" height="32" xmlns="http://www.w3.org/2000/svg" xmlns:svg="http://www.w3.org/2000/svg">
  <defs>
    <linearGradient id="svg_32" x1="0.463623" x2="0.467529" y1="0.246094" y2="0.78125">
      <stop offset="0" stop-color="#66cbff" stop-opacity="0.992188"/>
      <stop offset="1" stop-color="#0f6bff" stop-opacity="0.992188"/>
    </linearGradient>
  </defs>
  <g class="layer">
    <title>Layer 1</title>
    <g class="layer" id="svg_2">
      <g id="svg_1"/>
    </g>
    <g id="svg_3">
      <path d="m13.492509,4.658896c-6.030997,2.066467 -9.261798,8.028244 -7.216213,13.31603c0.699147,1.807275 1.930066,3.297058 3.482267,4.397926l-0.013344,4.569152l3.869857,-2.814107c2.289,0.575774 4.828124,0.521607 7.285139,-0.320268c6.030997,-2.066467 9.261798,-8.028244 7.216213,-13.31603c-2.045585,-5.287786 -8.592922,-7.89917 -14.623919,-5.832702l0,0l0,0l0,0z" fill="#000000" id="svg_17" stroke="#000000" stroke-dasharray="null" stroke-linejoin="null" stroke-width="0"/>
      <path d="m12.882678,4.354734c-6.030997,2.066467 -9.261798,8.028244 -7.216213,13.31603c0.699147,1.807275 1.930066,3.297058 3.482267,4.397926l-0.013344,4.569152l3.869857,-2.814107c2.289,0.575774 4.828124,0.521607 7.285139,-0.320268c6.030997,-2.066467 9.261798,-8.028244 7.216213,-13.31603c-2.045585,-5.287786 -8.592922,-7.89917 -14.623919,-5.832702l0,0l0,0l0,0z" fill="url(#svg_32)" id="svg_10" stroke="#000000" stroke-dasharray="null" stroke-linejoin="null" stroke-width="0"/>
      <path d="m9.714255,17.164208c0,0 6.112395,-6.734541 6.112395,-6.734541c0,0 2.900041,3.10825 2.900041,3.10825c0,0 5.487771,-3.155344 5.487771,-3.155344c0,0 -6.023163,6.781636 -6.023163,6.781636c0,0 -2.944658,-3.10825 -2.944658,-3.10825c0,0 -5.532387,3.10825 -5.532387,3.10825l0,0l0,0z" fill="#ffffff" id="svg_31" stroke="#000000" stroke-dasharray="null" stroke-linecap="null" stroke-linejoin="null" stroke-width="0"/>
    </g>
  </g>
</svg>